<mxfile host="app.diagrams.net" agent="Mozilla/5.0 (X11; Linux x86_64) AppleWebKit/537.36 (KHTML, like Gecko) Chrome/126.0.0.0 Safari/537.36" version="25.0.1">
  <diagram name="Page-1" id="zxnhx-bKG785_TuorDn2">
    <mxGraphModel dx="1839" dy="1673" grid="1" gridSize="10" guides="1" tooltips="1" connect="1" arrows="1" fold="1" page="1" pageScale="1" pageWidth="850" pageHeight="1100" math="0" shadow="0">
      <root>
        <mxCell id="0" />
        <mxCell id="1" parent="0" />
        <mxCell id="ZQrP34CV_owEF_NVqpTY-6" value="Tag" style="swimlane;fontStyle=1;align=center;verticalAlign=top;childLayout=stackLayout;horizontal=1;startSize=26;horizontalStack=0;resizeParent=1;resizeParentMax=0;resizeLast=0;collapsible=1;marginBottom=0;whiteSpace=wrap;html=1;" vertex="1" parent="1">
          <mxGeometry x="40" y="30" width="160" height="114" as="geometry" />
        </mxCell>
        <mxCell id="ZQrP34CV_owEF_NVqpTY-7" value="+ tagId: Long&lt;div&gt;+ tagName: String&lt;/div&gt;&lt;div&gt;+ descrip: String&lt;/div&gt;" style="text;strokeColor=none;fillColor=none;align=left;verticalAlign=top;spacingLeft=4;spacingRight=4;overflow=hidden;rotatable=0;points=[[0,0.5],[1,0.5]];portConstraint=eastwest;whiteSpace=wrap;html=1;" vertex="1" parent="ZQrP34CV_owEF_NVqpTY-6">
          <mxGeometry y="26" width="160" height="54" as="geometry" />
        </mxCell>
        <mxCell id="ZQrP34CV_owEF_NVqpTY-8" value="" style="line;strokeWidth=1;fillColor=none;align=left;verticalAlign=middle;spacingTop=-1;spacingLeft=3;spacingRight=3;rotatable=0;labelPosition=right;points=[];portConstraint=eastwest;strokeColor=inherit;" vertex="1" parent="ZQrP34CV_owEF_NVqpTY-6">
          <mxGeometry y="80" width="160" height="8" as="geometry" />
        </mxCell>
        <mxCell id="ZQrP34CV_owEF_NVqpTY-9" value="+ getter and setters" style="text;strokeColor=none;fillColor=none;align=left;verticalAlign=top;spacingLeft=4;spacingRight=4;overflow=hidden;rotatable=0;points=[[0,0.5],[1,0.5]];portConstraint=eastwest;whiteSpace=wrap;html=1;" vertex="1" parent="ZQrP34CV_owEF_NVqpTY-6">
          <mxGeometry y="88" width="160" height="26" as="geometry" />
        </mxCell>
        <mxCell id="ZQrP34CV_owEF_NVqpTY-10" value="Post" style="swimlane;fontStyle=1;align=center;verticalAlign=top;childLayout=stackLayout;horizontal=1;startSize=26;horizontalStack=0;resizeParent=1;resizeParentMax=0;resizeLast=0;collapsible=1;marginBottom=0;whiteSpace=wrap;html=1;" vertex="1" parent="1">
          <mxGeometry x="40" y="200" width="160" height="194" as="geometry" />
        </mxCell>
        <mxCell id="ZQrP34CV_owEF_NVqpTY-11" value="+ postId: Long&lt;div&gt;+ postImage:byte&lt;/div&gt;&lt;div&gt;+ votes: Vote&lt;br&gt;&lt;/div&gt;&lt;div&gt;+ userId: long&lt;/div&gt;&lt;div&gt;+ createdAt: timestamp&lt;/div&gt;&lt;div&gt;+ List&amp;lt;TagId&amp;gt; tags&lt;/div&gt;&lt;div&gt;+ List&amp;lt;Post&amp;gt; comments&lt;/div&gt;&lt;div&gt;+ PostType type&lt;/div&gt;" style="text;strokeColor=none;fillColor=none;align=left;verticalAlign=top;spacingLeft=4;spacingRight=4;overflow=hidden;rotatable=0;points=[[0,0.5],[1,0.5]];portConstraint=eastwest;whiteSpace=wrap;html=1;" vertex="1" parent="ZQrP34CV_owEF_NVqpTY-10">
          <mxGeometry y="26" width="160" height="134" as="geometry" />
        </mxCell>
        <mxCell id="ZQrP34CV_owEF_NVqpTY-12" value="" style="line;strokeWidth=1;fillColor=none;align=left;verticalAlign=middle;spacingTop=-1;spacingLeft=3;spacingRight=3;rotatable=0;labelPosition=right;points=[];portConstraint=eastwest;strokeColor=inherit;" vertex="1" parent="ZQrP34CV_owEF_NVqpTY-10">
          <mxGeometry y="160" width="160" height="8" as="geometry" />
        </mxCell>
        <mxCell id="ZQrP34CV_owEF_NVqpTY-13" value="+ getter and setters" style="text;strokeColor=none;fillColor=none;align=left;verticalAlign=top;spacingLeft=4;spacingRight=4;overflow=hidden;rotatable=0;points=[[0,0.5],[1,0.5]];portConstraint=eastwest;whiteSpace=wrap;html=1;" vertex="1" parent="ZQrP34CV_owEF_NVqpTY-10">
          <mxGeometry y="168" width="160" height="26" as="geometry" />
        </mxCell>
        <mxCell id="ZQrP34CV_owEF_NVqpTY-15" style="edgeStyle=orthogonalEdgeStyle;rounded=0;orthogonalLoop=1;jettySize=auto;html=1;exitX=1;exitY=0.5;exitDx=0;exitDy=0;entryX=0.991;entryY=0.093;entryDx=0;entryDy=0;entryPerimeter=0;" edge="1" parent="ZQrP34CV_owEF_NVqpTY-10" source="ZQrP34CV_owEF_NVqpTY-11" target="ZQrP34CV_owEF_NVqpTY-11">
          <mxGeometry relative="1" as="geometry" />
        </mxCell>
        <mxCell id="ZQrP34CV_owEF_NVqpTY-16" value="PostType-&amp;lt;&amp;lt;ENUM&amp;gt;&amp;gt;" style="swimlane;fontStyle=1;align=center;verticalAlign=top;childLayout=stackLayout;horizontal=1;startSize=26;horizontalStack=0;resizeParent=1;resizeParentMax=0;resizeLast=0;collapsible=1;marginBottom=0;whiteSpace=wrap;html=1;" vertex="1" parent="1">
          <mxGeometry x="230" y="80" width="160" height="88" as="geometry" />
        </mxCell>
        <mxCell id="ZQrP34CV_owEF_NVqpTY-17" value="+ ANSWER&lt;div&gt;+ QUESTION&lt;/div&gt;" style="text;strokeColor=none;fillColor=none;align=left;verticalAlign=top;spacingLeft=4;spacingRight=4;overflow=hidden;rotatable=0;points=[[0,0.5],[1,0.5]];portConstraint=eastwest;whiteSpace=wrap;html=1;" vertex="1" parent="ZQrP34CV_owEF_NVqpTY-16">
          <mxGeometry y="26" width="160" height="54" as="geometry" />
        </mxCell>
        <mxCell id="ZQrP34CV_owEF_NVqpTY-18" value="" style="line;strokeWidth=1;fillColor=none;align=left;verticalAlign=middle;spacingTop=-1;spacingLeft=3;spacingRight=3;rotatable=0;labelPosition=right;points=[];portConstraint=eastwest;strokeColor=inherit;" vertex="1" parent="ZQrP34CV_owEF_NVqpTY-16">
          <mxGeometry y="80" width="160" height="8" as="geometry" />
        </mxCell>
        <mxCell id="ZQrP34CV_owEF_NVqpTY-21" style="edgeStyle=orthogonalEdgeStyle;rounded=0;orthogonalLoop=1;jettySize=auto;html=1;exitX=0.5;exitY=0;exitDx=0;exitDy=0;entryX=-0.019;entryY=0.822;entryDx=0;entryDy=0;entryPerimeter=0;" edge="1" parent="1" source="ZQrP34CV_owEF_NVqpTY-10" target="ZQrP34CV_owEF_NVqpTY-17">
          <mxGeometry relative="1" as="geometry">
            <Array as="points">
              <mxPoint x="170" y="200" />
              <mxPoint x="170" y="150" />
            </Array>
          </mxGeometry>
        </mxCell>
        <mxCell id="ZQrP34CV_owEF_NVqpTY-22" style="edgeStyle=orthogonalEdgeStyle;rounded=0;orthogonalLoop=1;jettySize=auto;html=1;exitX=0.5;exitY=0;exitDx=0;exitDy=0;entryX=0.496;entryY=1.031;entryDx=0;entryDy=0;entryPerimeter=0;" edge="1" parent="1" source="ZQrP34CV_owEF_NVqpTY-10" target="ZQrP34CV_owEF_NVqpTY-9">
          <mxGeometry relative="1" as="geometry" />
        </mxCell>
        <mxCell id="ZQrP34CV_owEF_NVqpTY-23" value="User" style="swimlane;fontStyle=1;align=center;verticalAlign=top;childLayout=stackLayout;horizontal=1;startSize=26;horizontalStack=0;resizeParent=1;resizeParentMax=0;resizeLast=0;collapsible=1;marginBottom=0;whiteSpace=wrap;html=1;" vertex="1" parent="1">
          <mxGeometry x="290" y="310" width="160" height="154" as="geometry" />
        </mxCell>
        <mxCell id="ZQrP34CV_owEF_NVqpTY-24" value="+ userId: long&lt;div&gt;+ userName: String&lt;/div&gt;&lt;div&gt;+ email: String&lt;/div&gt;&lt;div&gt;+ reputation: long&lt;/div&gt;&lt;div&gt;+ List&amp;lt;postId&amp;gt; questions&lt;/div&gt;&lt;div&gt;+ List&amp;lt;postId&amp;gt; answers&lt;/div&gt;" style="text;strokeColor=none;fillColor=none;align=left;verticalAlign=top;spacingLeft=4;spacingRight=4;overflow=hidden;rotatable=0;points=[[0,0.5],[1,0.5]];portConstraint=eastwest;whiteSpace=wrap;html=1;" vertex="1" parent="ZQrP34CV_owEF_NVqpTY-23">
          <mxGeometry y="26" width="160" height="94" as="geometry" />
        </mxCell>
        <mxCell id="ZQrP34CV_owEF_NVqpTY-25" value="" style="line;strokeWidth=1;fillColor=none;align=left;verticalAlign=middle;spacingTop=-1;spacingLeft=3;spacingRight=3;rotatable=0;labelPosition=right;points=[];portConstraint=eastwest;strokeColor=inherit;" vertex="1" parent="ZQrP34CV_owEF_NVqpTY-23">
          <mxGeometry y="120" width="160" height="8" as="geometry" />
        </mxCell>
        <mxCell id="ZQrP34CV_owEF_NVqpTY-26" value="+ getter and setters" style="text;strokeColor=none;fillColor=none;align=left;verticalAlign=top;spacingLeft=4;spacingRight=4;overflow=hidden;rotatable=0;points=[[0,0.5],[1,0.5]];portConstraint=eastwest;whiteSpace=wrap;html=1;" vertex="1" parent="ZQrP34CV_owEF_NVqpTY-23">
          <mxGeometry y="128" width="160" height="26" as="geometry" />
        </mxCell>
        <mxCell id="ZQrP34CV_owEF_NVqpTY-27" style="edgeStyle=orthogonalEdgeStyle;rounded=0;orthogonalLoop=1;jettySize=auto;html=1;entryX=1.016;entryY=0.755;entryDx=0;entryDy=0;entryPerimeter=0;" edge="1" parent="1" source="ZQrP34CV_owEF_NVqpTY-23" target="ZQrP34CV_owEF_NVqpTY-11">
          <mxGeometry relative="1" as="geometry" />
        </mxCell>
        <mxCell id="ZQrP34CV_owEF_NVqpTY-37" style="edgeStyle=orthogonalEdgeStyle;rounded=0;orthogonalLoop=1;jettySize=auto;html=1;" edge="1" parent="1" source="ZQrP34CV_owEF_NVqpTY-28">
          <mxGeometry relative="1" as="geometry">
            <mxPoint x="635" y="120" as="targetPoint" />
          </mxGeometry>
        </mxCell>
        <mxCell id="ZQrP34CV_owEF_NVqpTY-28" value="UserRepository" style="swimlane;fontStyle=1;align=center;verticalAlign=top;childLayout=stackLayout;horizontal=1;startSize=26;horizontalStack=0;resizeParent=1;resizeParentMax=0;resizeLast=0;collapsible=1;marginBottom=0;whiteSpace=wrap;html=1;" vertex="1" parent="1">
          <mxGeometry x="510" y="190" width="320" height="190" as="geometry" />
        </mxCell>
        <mxCell id="ZQrP34CV_owEF_NVqpTY-29" value="+ Map&amp;lt;userEmail,User&amp;gt;&lt;div&gt;+ UserUtitility userUtility&lt;/div&gt;&lt;div&gt;&lt;br&gt;&lt;/div&gt;" style="text;strokeColor=none;fillColor=none;align=left;verticalAlign=top;spacingLeft=4;spacingRight=4;overflow=hidden;rotatable=0;points=[[0,0.5],[1,0.5]];portConstraint=eastwest;whiteSpace=wrap;html=1;" vertex="1" parent="ZQrP34CV_owEF_NVqpTY-28">
          <mxGeometry y="26" width="320" height="44" as="geometry" />
        </mxCell>
        <mxCell id="ZQrP34CV_owEF_NVqpTY-30" value="" style="line;strokeWidth=1;fillColor=none;align=left;verticalAlign=middle;spacingTop=-1;spacingLeft=3;spacingRight=3;rotatable=0;labelPosition=right;points=[];portConstraint=eastwest;strokeColor=inherit;" vertex="1" parent="ZQrP34CV_owEF_NVqpTY-28">
          <mxGeometry y="70" width="320" height="8" as="geometry" />
        </mxCell>
        <mxCell id="ZQrP34CV_owEF_NVqpTY-38" style="edgeStyle=orthogonalEdgeStyle;rounded=0;orthogonalLoop=1;jettySize=auto;html=1;" edge="1" parent="ZQrP34CV_owEF_NVqpTY-28" source="ZQrP34CV_owEF_NVqpTY-31">
          <mxGeometry relative="1" as="geometry">
            <mxPoint x="-60" y="134" as="targetPoint" />
          </mxGeometry>
        </mxCell>
        <mxCell id="ZQrP34CV_owEF_NVqpTY-31" value="+ logiin(String email,String password)&lt;div&gt;+ signIn(User user)&lt;/div&gt;&lt;div&gt;+ updatePassword( String email,String password)&lt;/div&gt;&lt;div&gt;+ deleteAccount(String email)&lt;/div&gt;&lt;div&gt;+ postQuestion(Post post)&lt;/div&gt;&lt;div&gt;+ postAnswer(Post Question, Post answer)&lt;/div&gt;" style="text;strokeColor=none;fillColor=none;align=left;verticalAlign=top;spacingLeft=4;spacingRight=4;overflow=hidden;rotatable=0;points=[[0,0.5],[1,0.5]];portConstraint=eastwest;whiteSpace=wrap;html=1;" vertex="1" parent="ZQrP34CV_owEF_NVqpTY-28">
          <mxGeometry y="78" width="320" height="112" as="geometry" />
        </mxCell>
        <mxCell id="ZQrP34CV_owEF_NVqpTY-32" value="UserUtility" style="swimlane;fontStyle=1;align=center;verticalAlign=top;childLayout=stackLayout;horizontal=1;startSize=26;horizontalStack=0;resizeParent=1;resizeParentMax=0;resizeLast=0;collapsible=1;marginBottom=0;whiteSpace=wrap;html=1;" vertex="1" parent="1">
          <mxGeometry x="510" y="-60" width="290" height="180" as="geometry" />
        </mxCell>
        <mxCell id="ZQrP34CV_owEF_NVqpTY-33" value="+ List&amp;lt;String&amp;gt; userNameTake&lt;div&gt;+ String passwordRegex&lt;/div&gt;&lt;div&gt;+ QUESTION_POINTS = 3&lt;/div&gt;&lt;div&gt;+ ANSWER_POINTS = 5&lt;/div&gt;" style="text;strokeColor=none;fillColor=none;align=left;verticalAlign=top;spacingLeft=4;spacingRight=4;overflow=hidden;rotatable=0;points=[[0,0.5],[1,0.5]];portConstraint=eastwest;whiteSpace=wrap;html=1;" vertex="1" parent="ZQrP34CV_owEF_NVqpTY-32">
          <mxGeometry y="26" width="290" height="84" as="geometry" />
        </mxCell>
        <mxCell id="ZQrP34CV_owEF_NVqpTY-34" value="" style="line;strokeWidth=1;fillColor=none;align=left;verticalAlign=middle;spacingTop=-1;spacingLeft=3;spacingRight=3;rotatable=0;labelPosition=right;points=[];portConstraint=eastwest;strokeColor=inherit;" vertex="1" parent="ZQrP34CV_owEF_NVqpTY-32">
          <mxGeometry y="110" width="290" height="8" as="geometry" />
        </mxCell>
        <mxCell id="ZQrP34CV_owEF_NVqpTY-35" value="+ generateUsername(String email,String name)&lt;div&gt;+ validateUserName(String username)&lt;/div&gt;" style="text;strokeColor=none;fillColor=none;align=left;verticalAlign=top;spacingLeft=4;spacingRight=4;overflow=hidden;rotatable=0;points=[[0,0.5],[1,0.5]];portConstraint=eastwest;whiteSpace=wrap;html=1;" vertex="1" parent="ZQrP34CV_owEF_NVqpTY-32">
          <mxGeometry y="118" width="290" height="62" as="geometry" />
        </mxCell>
        <mxCell id="ZQrP34CV_owEF_NVqpTY-39" value="TagRepository" style="swimlane;fontStyle=1;align=center;verticalAlign=top;childLayout=stackLayout;horizontal=1;startSize=26;horizontalStack=0;resizeParent=1;resizeParentMax=0;resizeLast=0;collapsible=1;marginBottom=0;whiteSpace=wrap;html=1;" vertex="1" parent="1">
          <mxGeometry x="-350" y="64" width="270" height="120" as="geometry" />
        </mxCell>
        <mxCell id="ZQrP34CV_owEF_NVqpTY-43" style="edgeStyle=orthogonalEdgeStyle;rounded=0;orthogonalLoop=1;jettySize=auto;html=1;" edge="1" parent="ZQrP34CV_owEF_NVqpTY-39" source="ZQrP34CV_owEF_NVqpTY-40">
          <mxGeometry relative="1" as="geometry">
            <mxPoint x="390" y="48" as="targetPoint" />
          </mxGeometry>
        </mxCell>
        <mxCell id="ZQrP34CV_owEF_NVqpTY-40" value="+ Map&amp;lt;Long tagId, List&amp;lt;PostId&amp;gt;&amp;gt;&lt;div&gt;+ List&amp;lt;Tag&amp;gt; allTags&lt;/div&gt;" style="text;strokeColor=none;fillColor=none;align=left;verticalAlign=top;spacingLeft=4;spacingRight=4;overflow=hidden;rotatable=0;points=[[0,0.5],[1,0.5]];portConstraint=eastwest;whiteSpace=wrap;html=1;" vertex="1" parent="ZQrP34CV_owEF_NVqpTY-39">
          <mxGeometry y="26" width="270" height="44" as="geometry" />
        </mxCell>
        <mxCell id="ZQrP34CV_owEF_NVqpTY-41" value="" style="line;strokeWidth=1;fillColor=none;align=left;verticalAlign=middle;spacingTop=-1;spacingLeft=3;spacingRight=3;rotatable=0;labelPosition=right;points=[];portConstraint=eastwest;strokeColor=inherit;" vertex="1" parent="ZQrP34CV_owEF_NVqpTY-39">
          <mxGeometry y="70" width="270" height="8" as="geometry" />
        </mxCell>
        <mxCell id="ZQrP34CV_owEF_NVqpTY-42" value="+ addQuestToTag(Long tagId, Long postId)&lt;div&gt;+ getAllTags()&lt;/div&gt;" style="text;strokeColor=none;fillColor=none;align=left;verticalAlign=top;spacingLeft=4;spacingRight=4;overflow=hidden;rotatable=0;points=[[0,0.5],[1,0.5]];portConstraint=eastwest;whiteSpace=wrap;html=1;" vertex="1" parent="ZQrP34CV_owEF_NVqpTY-39">
          <mxGeometry y="78" width="270" height="42" as="geometry" />
        </mxCell>
        <mxCell id="ZQrP34CV_owEF_NVqpTY-48" value="PostRepository" style="swimlane;fontStyle=1;align=center;verticalAlign=top;childLayout=stackLayout;horizontal=1;startSize=26;horizontalStack=0;resizeParent=1;resizeParentMax=0;resizeLast=0;collapsible=1;marginBottom=0;whiteSpace=wrap;html=1;" vertex="1" parent="1">
          <mxGeometry x="-380" y="420" width="330" height="130" as="geometry" />
        </mxCell>
        <mxCell id="ZQrP34CV_owEF_NVqpTY-49" value="+ Map&amp;lt;postId, Post&amp;gt;" style="text;strokeColor=none;fillColor=none;align=left;verticalAlign=top;spacingLeft=4;spacingRight=4;overflow=hidden;rotatable=0;points=[[0,0.5],[1,0.5]];portConstraint=eastwest;whiteSpace=wrap;html=1;" vertex="1" parent="ZQrP34CV_owEF_NVqpTY-48">
          <mxGeometry y="26" width="330" height="26" as="geometry" />
        </mxCell>
        <mxCell id="ZQrP34CV_owEF_NVqpTY-50" value="" style="line;strokeWidth=1;fillColor=none;align=left;verticalAlign=middle;spacingTop=-1;spacingLeft=3;spacingRight=3;rotatable=0;labelPosition=right;points=[];portConstraint=eastwest;strokeColor=inherit;" vertex="1" parent="ZQrP34CV_owEF_NVqpTY-48">
          <mxGeometry y="52" width="330" height="8" as="geometry" />
        </mxCell>
        <mxCell id="ZQrP34CV_owEF_NVqpTY-51" value="+ addQuestionPost(Post question)&lt;div&gt;+ deletePost(long postId)&lt;/div&gt;&lt;div&gt;+ addAnswerPost(long questPostId, Post answer)&lt;/div&gt;" style="text;strokeColor=none;fillColor=none;align=left;verticalAlign=top;spacingLeft=4;spacingRight=4;overflow=hidden;rotatable=0;points=[[0,0.5],[1,0.5]];portConstraint=eastwest;whiteSpace=wrap;html=1;" vertex="1" parent="ZQrP34CV_owEF_NVqpTY-48">
          <mxGeometry y="60" width="330" height="70" as="geometry" />
        </mxCell>
        <mxCell id="ZQrP34CV_owEF_NVqpTY-53" value="UserService" style="swimlane;fontStyle=1;align=center;verticalAlign=top;childLayout=stackLayout;horizontal=1;startSize=26;horizontalStack=0;resizeParent=1;resizeParentMax=0;resizeLast=0;collapsible=1;marginBottom=0;whiteSpace=wrap;html=1;" vertex="1" parent="1">
          <mxGeometry x="580" y="440" width="270" height="170" as="geometry" />
        </mxCell>
        <mxCell id="ZQrP34CV_owEF_NVqpTY-54" value="+ userRepository" style="text;strokeColor=none;fillColor=none;align=left;verticalAlign=top;spacingLeft=4;spacingRight=4;overflow=hidden;rotatable=0;points=[[0,0.5],[1,0.5]];portConstraint=eastwest;whiteSpace=wrap;html=1;" vertex="1" parent="ZQrP34CV_owEF_NVqpTY-53">
          <mxGeometry y="26" width="270" height="26" as="geometry" />
        </mxCell>
        <mxCell id="ZQrP34CV_owEF_NVqpTY-55" value="" style="line;strokeWidth=1;fillColor=none;align=left;verticalAlign=middle;spacingTop=-1;spacingLeft=3;spacingRight=3;rotatable=0;labelPosition=right;points=[];portConstraint=eastwest;strokeColor=inherit;" vertex="1" parent="ZQrP34CV_owEF_NVqpTY-53">
          <mxGeometry y="52" width="270" height="8" as="geometry" />
        </mxCell>
        <mxCell id="ZQrP34CV_owEF_NVqpTY-56" value="+ login()&lt;div&gt;+ register()&lt;/div&gt;&lt;div&gt;+ askQuestion(Post question)&lt;/div&gt;&lt;div&gt;+ postAnswer(long questionId, Post answer)&lt;/div&gt;&lt;div&gt;+ upVotePost()&lt;/div&gt;&lt;div&gt;+ downVotePost()&lt;/div&gt;" style="text;strokeColor=none;fillColor=none;align=left;verticalAlign=top;spacingLeft=4;spacingRight=4;overflow=hidden;rotatable=0;points=[[0,0.5],[1,0.5]];portConstraint=eastwest;whiteSpace=wrap;html=1;" vertex="1" parent="ZQrP34CV_owEF_NVqpTY-53">
          <mxGeometry y="60" width="270" height="110" as="geometry" />
        </mxCell>
        <mxCell id="ZQrP34CV_owEF_NVqpTY-80" style="edgeStyle=orthogonalEdgeStyle;rounded=0;orthogonalLoop=1;jettySize=auto;html=1;" edge="1" parent="1" source="ZQrP34CV_owEF_NVqpTY-57">
          <mxGeometry relative="1" as="geometry">
            <mxPoint x="280" y="540" as="targetPoint" />
          </mxGeometry>
        </mxCell>
        <mxCell id="ZQrP34CV_owEF_NVqpTY-57" value="VoteCalculator" style="swimlane;fontStyle=1;align=center;verticalAlign=top;childLayout=stackLayout;horizontal=1;startSize=26;horizontalStack=0;resizeParent=1;resizeParentMax=0;resizeLast=0;collapsible=1;marginBottom=0;whiteSpace=wrap;html=1;" vertex="1" parent="1">
          <mxGeometry x="310" y="500" width="220" height="80" as="geometry" />
        </mxCell>
        <mxCell id="ZQrP34CV_owEF_NVqpTY-59" value="" style="line;strokeWidth=1;fillColor=none;align=left;verticalAlign=middle;spacingTop=-1;spacingLeft=3;spacingRight=3;rotatable=0;labelPosition=right;points=[];portConstraint=eastwest;strokeColor=inherit;" vertex="1" parent="ZQrP34CV_owEF_NVqpTY-57">
          <mxGeometry y="26" width="220" height="8" as="geometry" />
        </mxCell>
        <mxCell id="ZQrP34CV_owEF_NVqpTY-60" value="+ calculateAvgVote(long upVote, long downVote): long" style="text;strokeColor=none;fillColor=none;align=left;verticalAlign=top;spacingLeft=4;spacingRight=4;overflow=hidden;rotatable=0;points=[[0,0.5],[1,0.5]];portConstraint=eastwest;whiteSpace=wrap;html=1;" vertex="1" parent="ZQrP34CV_owEF_NVqpTY-57">
          <mxGeometry y="34" width="220" height="46" as="geometry" />
        </mxCell>
        <mxCell id="ZQrP34CV_owEF_NVqpTY-62" value="Vote" style="swimlane;fontStyle=1;align=center;verticalAlign=top;childLayout=stackLayout;horizontal=1;startSize=26;horizontalStack=0;resizeParent=1;resizeParentMax=0;resizeLast=0;collapsible=1;marginBottom=0;whiteSpace=wrap;html=1;" vertex="1" parent="1">
          <mxGeometry x="290" y="180" width="160" height="108" as="geometry" />
        </mxCell>
        <mxCell id="ZQrP34CV_owEF_NVqpTY-63" value="+ upVote: long&lt;div&gt;+ downVote: long&lt;/div&gt;" style="text;strokeColor=none;fillColor=none;align=left;verticalAlign=top;spacingLeft=4;spacingRight=4;overflow=hidden;rotatable=0;points=[[0,0.5],[1,0.5]];portConstraint=eastwest;whiteSpace=wrap;html=1;" vertex="1" parent="ZQrP34CV_owEF_NVqpTY-62">
          <mxGeometry y="26" width="160" height="44" as="geometry" />
        </mxCell>
        <mxCell id="ZQrP34CV_owEF_NVqpTY-64" value="" style="line;strokeWidth=1;fillColor=none;align=left;verticalAlign=middle;spacingTop=-1;spacingLeft=3;spacingRight=3;rotatable=0;labelPosition=right;points=[];portConstraint=eastwest;strokeColor=inherit;" vertex="1" parent="ZQrP34CV_owEF_NVqpTY-62">
          <mxGeometry y="70" width="160" height="8" as="geometry" />
        </mxCell>
        <mxCell id="ZQrP34CV_owEF_NVqpTY-65" value="+ getter and setter" style="text;strokeColor=none;fillColor=none;align=left;verticalAlign=top;spacingLeft=4;spacingRight=4;overflow=hidden;rotatable=0;points=[[0,0.5],[1,0.5]];portConstraint=eastwest;whiteSpace=wrap;html=1;" vertex="1" parent="ZQrP34CV_owEF_NVqpTY-62">
          <mxGeometry y="78" width="160" height="30" as="geometry" />
        </mxCell>
        <mxCell id="ZQrP34CV_owEF_NVqpTY-66" style="edgeStyle=orthogonalEdgeStyle;rounded=0;orthogonalLoop=1;jettySize=auto;html=1;entryX=0;entryY=0.067;entryDx=0;entryDy=0;entryPerimeter=0;" edge="1" parent="1" source="ZQrP34CV_owEF_NVqpTY-10" target="ZQrP34CV_owEF_NVqpTY-65">
          <mxGeometry relative="1" as="geometry" />
        </mxCell>
        <mxCell id="ZQrP34CV_owEF_NVqpTY-72" style="edgeStyle=orthogonalEdgeStyle;rounded=0;orthogonalLoop=1;jettySize=auto;html=1;" edge="1" parent="1" source="ZQrP34CV_owEF_NVqpTY-68">
          <mxGeometry relative="1" as="geometry">
            <mxPoint x="-250" y="190" as="targetPoint" />
            <Array as="points">
              <mxPoint x="-545" y="300" />
              <mxPoint x="-249" y="300" />
            </Array>
          </mxGeometry>
        </mxCell>
        <mxCell id="ZQrP34CV_owEF_NVqpTY-68" value="TagService" style="swimlane;fontStyle=1;align=center;verticalAlign=top;childLayout=stackLayout;horizontal=1;startSize=26;horizontalStack=0;resizeParent=1;resizeParentMax=0;resizeLast=0;collapsible=1;marginBottom=0;whiteSpace=wrap;html=1;" vertex="1" parent="1">
          <mxGeometry x="-665" y="430" width="240" height="120" as="geometry" />
        </mxCell>
        <mxCell id="ZQrP34CV_owEF_NVqpTY-69" value="+ tagRepository: TagRepository" style="text;strokeColor=none;fillColor=none;align=left;verticalAlign=top;spacingLeft=4;spacingRight=4;overflow=hidden;rotatable=0;points=[[0,0.5],[1,0.5]];portConstraint=eastwest;whiteSpace=wrap;html=1;" vertex="1" parent="ZQrP34CV_owEF_NVqpTY-68">
          <mxGeometry y="26" width="240" height="26" as="geometry" />
        </mxCell>
        <mxCell id="ZQrP34CV_owEF_NVqpTY-70" value="" style="line;strokeWidth=1;fillColor=none;align=left;verticalAlign=middle;spacingTop=-1;spacingLeft=3;spacingRight=3;rotatable=0;labelPosition=right;points=[];portConstraint=eastwest;strokeColor=inherit;" vertex="1" parent="ZQrP34CV_owEF_NVqpTY-68">
          <mxGeometry y="52" width="240" height="8" as="geometry" />
        </mxCell>
        <mxCell id="ZQrP34CV_owEF_NVqpTY-71" value="+ showAllTags()&lt;div&gt;+ getTagPosts(long tagId)&lt;/div&gt;&lt;div&gt;+ addNewTag(String tagName,String desc)&lt;/div&gt;" style="text;strokeColor=none;fillColor=none;align=left;verticalAlign=top;spacingLeft=4;spacingRight=4;overflow=hidden;rotatable=0;points=[[0,0.5],[1,0.5]];portConstraint=eastwest;whiteSpace=wrap;html=1;" vertex="1" parent="ZQrP34CV_owEF_NVqpTY-68">
          <mxGeometry y="60" width="240" height="60" as="geometry" />
        </mxCell>
        <mxCell id="ZQrP34CV_owEF_NVqpTY-73" value="PostService" style="swimlane;fontStyle=1;align=center;verticalAlign=top;childLayout=stackLayout;horizontal=1;startSize=26;horizontalStack=0;resizeParent=1;resizeParentMax=0;resizeLast=0;collapsible=1;marginBottom=0;whiteSpace=wrap;html=1;" vertex="1" parent="1">
          <mxGeometry x="10" y="470" width="260" height="178" as="geometry" />
        </mxCell>
        <mxCell id="ZQrP34CV_owEF_NVqpTY-74" value="+ postRepository: PostRepository&lt;div&gt;+ voteCalculator - showAllTags will use it&lt;/div&gt;" style="text;strokeColor=none;fillColor=none;align=left;verticalAlign=top;spacingLeft=4;spacingRight=4;overflow=hidden;rotatable=0;points=[[0,0.5],[1,0.5]];portConstraint=eastwest;whiteSpace=wrap;html=1;" vertex="1" parent="ZQrP34CV_owEF_NVqpTY-73">
          <mxGeometry y="26" width="260" height="44" as="geometry" />
        </mxCell>
        <mxCell id="ZQrP34CV_owEF_NVqpTY-75" value="" style="line;strokeWidth=1;fillColor=none;align=left;verticalAlign=middle;spacingTop=-1;spacingLeft=3;spacingRight=3;rotatable=0;labelPosition=right;points=[];portConstraint=eastwest;strokeColor=inherit;" vertex="1" parent="ZQrP34CV_owEF_NVqpTY-73">
          <mxGeometry y="70" width="260" height="8" as="geometry" />
        </mxCell>
        <mxCell id="ZQrP34CV_owEF_NVqpTY-76" value="+ postQuestion(Post question)&lt;div&gt;+ deletePost( long postId)&lt;/div&gt;&lt;div&gt;+ postAnswer(long questionId, Post answer)&lt;/div&gt;&lt;div&gt;+ showAllPost()&lt;/div&gt;&lt;div&gt;&amp;nbsp;&lt;/div&gt;" style="text;strokeColor=none;fillColor=none;align=left;verticalAlign=top;spacingLeft=4;spacingRight=4;overflow=hidden;rotatable=0;points=[[0,0.5],[1,0.5]];portConstraint=eastwest;whiteSpace=wrap;html=1;" vertex="1" parent="ZQrP34CV_owEF_NVqpTY-73">
          <mxGeometry y="78" width="260" height="100" as="geometry" />
        </mxCell>
        <mxCell id="ZQrP34CV_owEF_NVqpTY-77" style="edgeStyle=orthogonalEdgeStyle;rounded=0;orthogonalLoop=1;jettySize=auto;html=1;entryX=-0.009;entryY=0.916;entryDx=0;entryDy=0;entryPerimeter=0;" edge="1" parent="1" source="ZQrP34CV_owEF_NVqpTY-48" target="ZQrP34CV_owEF_NVqpTY-11">
          <mxGeometry relative="1" as="geometry">
            <Array as="points">
              <mxPoint x="-215" y="390" />
              <mxPoint x="10" y="390" />
              <mxPoint x="10" y="349" />
            </Array>
          </mxGeometry>
        </mxCell>
        <mxCell id="ZQrP34CV_owEF_NVqpTY-78" style="edgeStyle=orthogonalEdgeStyle;rounded=0;orthogonalLoop=1;jettySize=auto;html=1;entryX=1.004;entryY=0.789;entryDx=0;entryDy=0;entryPerimeter=0;" edge="1" parent="1" source="ZQrP34CV_owEF_NVqpTY-73" target="ZQrP34CV_owEF_NVqpTY-51">
          <mxGeometry relative="1" as="geometry" />
        </mxCell>
        <mxCell id="ZQrP34CV_owEF_NVqpTY-79" style="edgeStyle=orthogonalEdgeStyle;rounded=0;orthogonalLoop=1;jettySize=auto;html=1;entryX=0.647;entryY=1.007;entryDx=0;entryDy=0;entryPerimeter=0;" edge="1" parent="1" source="ZQrP34CV_owEF_NVqpTY-53" target="ZQrP34CV_owEF_NVqpTY-31">
          <mxGeometry relative="1" as="geometry" />
        </mxCell>
        <mxCell id="ZQrP34CV_owEF_NVqpTY-85" style="edgeStyle=orthogonalEdgeStyle;rounded=0;orthogonalLoop=1;jettySize=auto;html=1;" edge="1" parent="1" source="ZQrP34CV_owEF_NVqpTY-81">
          <mxGeometry relative="1" as="geometry">
            <mxPoint x="670" y="620" as="targetPoint" />
          </mxGeometry>
        </mxCell>
        <mxCell id="ZQrP34CV_owEF_NVqpTY-86" style="edgeStyle=orthogonalEdgeStyle;rounded=0;orthogonalLoop=1;jettySize=auto;html=1;" edge="1" parent="1" source="ZQrP34CV_owEF_NVqpTY-81">
          <mxGeometry relative="1" as="geometry">
            <mxPoint x="260" y="650" as="targetPoint" />
          </mxGeometry>
        </mxCell>
        <mxCell id="ZQrP34CV_owEF_NVqpTY-81" value="StackOverFlow" style="swimlane;fontStyle=1;align=center;verticalAlign=top;childLayout=stackLayout;horizontal=1;startSize=26;horizontalStack=0;resizeParent=1;resizeParentMax=0;resizeLast=0;collapsible=1;marginBottom=0;whiteSpace=wrap;html=1;" vertex="1" parent="1">
          <mxGeometry x="240" y="700" width="410" height="280" as="geometry" />
        </mxCell>
        <mxCell id="ZQrP34CV_owEF_NVqpTY-82" value="+ UserService&lt;div&gt;+ PostService&lt;/div&gt;&lt;div&gt;+ UserService&lt;/div&gt;" style="text;strokeColor=none;fillColor=none;align=left;verticalAlign=top;spacingLeft=4;spacingRight=4;overflow=hidden;rotatable=0;points=[[0,0.5],[1,0.5]];portConstraint=eastwest;whiteSpace=wrap;html=1;" vertex="1" parent="ZQrP34CV_owEF_NVqpTY-81">
          <mxGeometry y="26" width="410" height="54" as="geometry" />
        </mxCell>
        <mxCell id="ZQrP34CV_owEF_NVqpTY-83" value="" style="line;strokeWidth=1;fillColor=none;align=left;verticalAlign=middle;spacingTop=-1;spacingLeft=3;spacingRight=3;rotatable=0;labelPosition=right;points=[];portConstraint=eastwest;strokeColor=inherit;" vertex="1" parent="ZQrP34CV_owEF_NVqpTY-81">
          <mxGeometry y="80" width="410" height="8" as="geometry" />
        </mxCell>
        <mxCell id="ZQrP34CV_owEF_NVqpTY-87" style="edgeStyle=orthogonalEdgeStyle;rounded=0;orthogonalLoop=1;jettySize=auto;html=1;" edge="1" parent="ZQrP34CV_owEF_NVqpTY-81" source="ZQrP34CV_owEF_NVqpTY-84">
          <mxGeometry relative="1" as="geometry">
            <mxPoint x="-690" y="-140" as="targetPoint" />
          </mxGeometry>
        </mxCell>
        <mxCell id="ZQrP34CV_owEF_NVqpTY-84" value="+ loginUser()&lt;div&gt;+ registerUser()&lt;/div&gt;&lt;div&gt;+ askQuestion()&lt;/div&gt;&lt;div&gt;+ postAnswer()&lt;/div&gt;&lt;div&gt;+ upVoteThread(long postId)&lt;/div&gt;&lt;div&gt;+ downVoteThread(long postId)&lt;/div&gt;&lt;div&gt;+ displayAllTags()&lt;/div&gt;" style="text;strokeColor=none;fillColor=none;align=left;verticalAlign=top;spacingLeft=4;spacingRight=4;overflow=hidden;rotatable=0;points=[[0,0.5],[1,0.5]];portConstraint=eastwest;whiteSpace=wrap;html=1;" vertex="1" parent="ZQrP34CV_owEF_NVqpTY-81">
          <mxGeometry y="88" width="410" height="192" as="geometry" />
        </mxCell>
      </root>
    </mxGraphModel>
  </diagram>
</mxfile>
